<svg xmlns="http://www.w3.org/2000/svg" version="1.0" width="1280.000000pt" height="1058.000000pt"
        viewBox="0 0 1280.000000 1058.000000" preserveAspectRatio="xMidYMid meet">
    <g transform="translate(0.000000,1058.000000) scale(0.100000,-0.100000)" fill="#ffffff"
            stroke="none">
        <path d="M4500 10574 c-14 -2 -83 -11 -154 -21 l-129 -16 -73 -66 c-284 -255
-372 -337 -371 -343 1 -3 223 -214 492 -468 270 -254 505 -477 524 -495 l34
-34 24 -357 24 -357 -23 -22 c-13 -13 -160 -147 -328 -300 l-304 -277 -41 5
c-22 3 -199 23 -392 43 l-353 38 -482 453 c-266 249 -485 453 -488 453 -3 0
-104 -99 -225 -220 l-220 -220 0 -228 c1 -236 11 -328 56 -507 125 -494 432
-928 858 -1215 360 -242 798 -357 1221 -321 252 22 505 88 720 188 52 24 99
42 105 41 6 -2 178 -174 383 -383 l371 -380 -132 -7 c-221 -11 -428 -79 -607
-200 -115 -77 -186 -148 -310 -308 -243 -315 -466 -562 -763 -841 -391 -369
-776 -678 -1182 -948 -219 -145 -350 -221 -487 -280 -121 -53 -175 -88 -250
-159 -115 -110 -190 -251 -229 -434 -19 -88 -21 -122 -16 -267 4 -142 9 -183
35 -283 40 -153 100 -289 183 -413 68 -101 479 -559 626 -696 209 -196 537
-308 873 -296 305 11 529 105 736 312 115 114 153 171 284 415 274 512 524
871 946 1355 231 266 482 520 957 968 210 198 311 336 397 537 43 100 68 185
83 288 l12 75 1294 -1324 c712 -728 1354 -1384 1425 -1457 143 -146 225 -206
347 -258 332 -140 714 -111 988 75 183 125 310 290 383 501 32 93 33 98 32
265 0 155 -3 178 -28 259 -15 49 -42 123 -62 164 -86 188 -78 179 -1650 1863
l-1486 1592 149 151 c131 132 1210 1233 1252 1278 13 13 80 21 406 43 327 23
392 30 403 44 8 9 304 418 659 910 626 867 645 894 627 911 -11 10 -275 246
-588 524 -567 504 -569 506 -591 488 -13 -9 -395 -336 -849 -727 l-826 -710 0
-390 -1 -390 -516 -535 c-284 -294 -584 -606 -668 -694 l-152 -158 -482 516
-483 517 26 92 c70 247 96 436 97 687 2 464 -128 863 -395 1218 -78 103 -251
277 -352 354 -238 182 -521 303 -843 359 -110 20 -435 35 -501 23z" />
    </g>
</svg>